<svg id="Capa_1" data-name="Capa 1" xmlns="http://www.w3.org/2000/svg" viewBox="0 0 80 80"><defs><style>.cls-1{fill:none;}.cls-2{fill:#007eae;stroke:#007eae;stroke-miterlimit:10;stroke-width:0.75px;}</style></defs><rect id="Bounds" class="cls-1" x="10" y="10" width="60" height="60"/><g id="icon"><path class="cls-2" d="M39.66,68.25A28.59,28.59,0,1,0,11.08,39.66,28.55,28.55,0,0,0,39.66,68.25Zm0,1A29.64,29.64,0,1,1,69.3,39.66,29.61,29.61,0,0,1,39.66,69.3ZM22.7,63H21.65V29.19a7.51,7.51,0,0,1,7.54-7.54h21a7.51,7.51,0,0,1,7.54,7.54V63h-1V29.19a6.52,6.52,0,0,0-6.49-6.49H29.19a6.52,6.52,0,0,0-6.49,6.49ZM36.21,27.1a.53.53,0,1,1,0-1.05H46.68a.49.49,0,0,1,.52.52.56.56,0,0,1-.52.53Zm-4.4,0a.53.53,0,0,1,0-1.05h.84a.53.53,0,0,1,0,1.05Z"/><path id="Temporal" class="cls-2" d="M36.42,43.75a2.79,2.79,0,0,1-.94,2.3,4.32,4.32,0,0,1-2.83.84h-.94v3.56H30.13V40.92h2.73a4.23,4.23,0,0,1,2.72.73A2.63,2.63,0,0,1,36.42,43.75Zm-4.71,1.78h.83a2.82,2.82,0,0,0,1.78-.42,1.41,1.41,0,0,0,.53-1.26,1.7,1.7,0,0,0-.53-1.25,2.13,2.13,0,0,0-1.57-.42h-1Zm10.47,4.82-.32-1.05h0a4.21,4.21,0,0,1-1,.94,3.48,3.48,0,0,1-3-.31,2.08,2.08,0,0,1-.63-1.68A2,2,0,0,1,38,46.58,4,4,0,0,1,40.5,46h1.26v-.42a1.57,1.57,0,0,0-.32-1.05,1.36,1.36,0,0,0-1-.31,3,3,0,0,0-1,.21,3.53,3.53,0,0,0-.94.42l-.53-1a5.65,5.65,0,0,1,1.26-.42,5.83,5.83,0,0,1,1.36-.21,3.15,3.15,0,0,1,2.1.63,2.25,2.25,0,0,1,.73,1.88v4.93H42.18ZM39.87,49.3a2,2,0,0,0,1.37-.42,1.81,1.81,0,0,0,.52-1.36v-.63h-.94a2.91,2.91,0,0,0-1.57.31,1.1,1.1,0,0,0-.53.95,1,1,0,0,0,.32.73A.76.76,0,0,0,39.87,49.3Zm4-6.18h1.68L47,47.2a5.65,5.65,0,0,1,.42,1.68h0a3.52,3.52,0,0,1,.21-.84c.11-.31.63-2,1.68-4.92H51l-3.14,8.17A3,3,0,0,1,45,53.59a3,3,0,0,1-.94-.1V52.23c.21,0,.53.11.84.11a1.64,1.64,0,0,0,1.57-1.26l.32-.63Z"/></g></svg>