<svg id="Capa_1" data-name="Capa 1" xmlns="http://www.w3.org/2000/svg" viewBox="0 0 80 80"><defs><style>.cls-1{fill:none;}.cls-2{fill:#007eae;}</style></defs><rect id="Bounds" class="cls-1" x="10" y="10" width="60" height="60"/><g id="_05-iconos_06-iconos-generales-_26x26_menu-principal_emergencias_2363_2363" data-name="05-iconos/06-iconos-generales-(26x26)/menu-principal/emergencias/2363/2363"><path id="icon" class="cls-2" d="M60.63,15.29v43.9a1.13,1.13,0,0,1-1.2,1.2h-35a1.13,1.13,0,0,1-1.2-1.2V15.29h-12a1.2,1.2,0,0,1,0-2.4H68.79a1.2,1.2,0,1,1,0,2.4ZM25.61,58H58.23V15.29H25.61ZM36.4,36.64V35H34.72a1.2,1.2,0,1,1,0-2.4h2.16c1-4.07,2.88-6.23,6-7a11,11,0,0,1,4.8.48,9.44,9.44,0,0,0,1.44.48,1.24,1.24,0,1,1-1.2,2.16c-.24,0-.48-.24-1.2-.48a6.17,6.17,0,0,0-3.6-.24c-1.92.24-3.36,1.68-4.08,4.55h6.48a1.2,1.2,0,0,1,0,2.4H39V36.4h4.8a1.2,1.2,0,0,1,0,2.4H39a4.91,4.91,0,0,0,3.6,4.08c1.92.48,4.56,0,5-.48a1.2,1.2,0,0,1,1.44,1.92c-1.2,1-4.56,1.44-7.2.72-2.88-.72-4.8-2.88-5.28-6.24H34.72a1.2,1.2,0,0,1,0-2.4H36.4ZM53.67,62.07h2.4v3.84a1.13,1.13,0,0,1-1.2,1.2h-35a1.13,1.13,0,0,1-1.2-1.2v-47h2.4V65H53.67Z"/></g></svg>