<svg id="Capa_1" data-name="Capa 1" xmlns="http://www.w3.org/2000/svg" xmlns:xlink="http://www.w3.org/1999/xlink" viewBox="0 0 80 80"><defs><style>.cls-1{fill:#c4c4c4;}.cls-2,.cls-4,.cls-5{fill:none;}.cls-3{clip-path:url(#clip-path);}.cls-4,.cls-5{stroke:#007eae;stroke-width:1.5px;}.cls-4{stroke-linecap:round;}.cls-6{mask:url(#mask);}.cls-7{fill:#fff;}.cls-8{fill:#007eae;}</style><clipPath id="clip-path"><rect class="cls-2" x="-1.9" y="8.4" width="83.81" height="63.2"/></clipPath><mask id="mask" x="10.46" y="55.11" width="20.61" height="19.23" maskUnits="userSpaceOnUse"><g id="mask0"><circle class="cls-1" cx="20.77" cy="65.42" r="8.93"/></g></mask></defs><g class="cls-3"><path class="cls-4" d="M57.79,11.58V22.16"/><path class="cls-4" d="M22.76,11.58V22.16"/><path class="cls-5" d="M12.18,29.58H68.51"/><path class="cls-4" d="M32.24,42.08H30a1.23,1.23,0,0,1-1.24-1.24V38.65A1.23,1.23,0,0,1,30,37.41h2.2a1.23,1.23,0,0,1,1.24,1.24v2.19A1.23,1.23,0,0,1,32.24,42.08Z"/><path class="cls-4" d="M41.31,42.08h-2.2a1.23,1.23,0,0,1-1.24-1.24V38.65a1.23,1.23,0,0,1,1.24-1.24h2.2a1.23,1.23,0,0,1,1.23,1.24v2.19A1.23,1.23,0,0,1,41.31,42.08Z"/><path class="cls-4" d="M50.51,42.08h-2.2a1.23,1.23,0,0,1-1.23-1.24V38.65a1.23,1.23,0,0,1,1.23-1.24h2.2a1.23,1.23,0,0,1,1.24,1.24v2.19A1.23,1.23,0,0,1,50.51,42.08Z"/><path class="cls-4" d="M32.24,50.19H30A1.23,1.23,0,0,1,28.8,49v-2.2A1.23,1.23,0,0,1,30,45.52h2.2a1.23,1.23,0,0,1,1.24,1.23V49A1.23,1.23,0,0,1,32.24,50.19Z"/><path class="cls-4" d="M41.31,50.19h-2.2A1.23,1.23,0,0,1,37.87,49v-2.2a1.23,1.23,0,0,1,1.24-1.23h2.2a1.22,1.22,0,0,1,1.23,1.23V49A1.23,1.23,0,0,1,41.31,50.19Z"/><path class="cls-4" d="M50.51,50.19h-2.2A1.23,1.23,0,0,1,47.08,49v-2.2a1.22,1.22,0,0,1,1.23-1.23h2.2a1.23,1.23,0,0,1,1.24,1.23V49A1.23,1.23,0,0,1,50.51,50.19Z"/><path class="cls-5" d="M13,60.24a5.42,5.42,0,0,1-.75-2.77V23.94a5.51,5.51,0,0,1,5.49-5.49H63.12a5.51,5.51,0,0,1,5.5,5.49V57.47A5.51,5.51,0,0,1,63.12,63H30.27"/><g class="cls-6"><rect class="cls-2" x="10.46" y="55.11" width="20.61" height="10.99"/></g><path class="cls-7" d="M20.77,56.49A4.81,4.81,0,1,0,16,51.68,4.81,4.81,0,0,0,20.77,56.49Z"/><path class="cls-8" d="M24.61,55.62a5.75,5.75,0,1,0-8.1-.69c.13.28.41.41.68.69a10.45,10.45,0,0,0-6.73,9.75,1.08,1.08,0,0,0,1.1,1.1,1,1,0,0,0,1.1-1.1A8.42,8.42,0,0,1,21,57a8.33,8.33,0,0,1,8.38,8.38,1.08,1.08,0,0,0,1.1,1.1,1,1,0,0,0,1.1-1.1A11.69,11.69,0,0,0,24.61,55.62Zm-3.71-.69a3.71,3.71,0,1,1,3.71-3.71A3.78,3.78,0,0,1,20.9,54.93Z"/></g></svg>