<svg id="Capa_1" data-name="Capa 1" xmlns="http://www.w3.org/2000/svg" viewBox="0 0 80 80"><defs><style>.cls-1{fill:none;}.cls-2,.cls-3{fill:#007eae;}.cls-3{opacity:0.5;isolation:isolate;}</style></defs><rect id="Bounds" class="cls-1" x="10" y="10" width="60" height="60"/><path class="cls-2" d="M68.41,18.66H11.59a1.13,1.13,0,0,0-1.05,1.05V60.29a1.13,1.13,0,0,0,1.05,1.05H68.41a1.13,1.13,0,0,0,1-1.05V19.71a1,1,0,0,0-1-1.05Zm-1,2.09v8.12H12.64V20.75ZM12.64,59.25V30.7H67.36V59H12.64Z"/><circle class="cls-2" cx="40" cy="24.68" r="1.57"/><circle class="cls-2" cx="40" cy="24.68" r="1.57"/><circle class="cls-2" cx="40" cy="24.68" r="1.57"/><path class="cls-2" d="M29.79,25.73H50a1.13,1.13,0,0,0,1-1.05c0-.52-.26-1.05-.79-1.05H30.05A1,1,0,0,0,29,24.68C29,25.21,29.26,25.73,29.79,25.73Z"/><rect class="cls-3" x="16.96" y="34.37" width="46.09" height="6.55"/><rect class="cls-3" x="16.96" y="41.96" width="46.09" height="11.78"/><rect class="cls-3" x="16.96" y="55.84" width="46.09" height="3.14"/></svg>