<svg id="Capa_1" data-name="Capa 1" xmlns="http://www.w3.org/2000/svg" viewBox="0 0 80 80"><defs><style>.cls-1{fill:none;}.cls-2,.cls-3{fill:#007eae;}.cls-2{stroke:#007eae;stroke-miterlimit:10;stroke-width:0.75px;}</style></defs><rect id="Bounds" class="cls-1" x="10" y="10" width="60" height="60"/><path class="cls-2" d="M39.73,69.18a28.81,28.81,0,1,0-28.81-28.8A28.77,28.77,0,0,0,39.73,69.18Zm0,1.06A29.86,29.86,0,1,1,69.59,40.38,29.84,29.84,0,0,1,39.73,70.24Zm-17.1-6.33H21.58V29.83a7.56,7.56,0,0,1,7.59-7.6H50.28a7.56,7.56,0,0,1,7.59,7.6V63.91h-1V29.83a6.58,6.58,0,0,0-6.54-6.55H29.17a6.58,6.58,0,0,0-6.54,6.55V63.91ZM36.24,27.72a.5.5,0,0,1-.52-.53.5.5,0,0,1,.52-.53H46.79a.5.5,0,0,1,.53.53.57.57,0,0,1-.53.53Zm-4.43,0a.51.51,0,0,1-.53-.53.5.5,0,0,1,.53-.53h.85a.5.5,0,0,1,.52.53.5.5,0,0,1-.52.53Z"/><path class="cls-3" d="M39.73,38.78c.21.11.31.21.42.11a.39.39,0,0,1,.21.1c.1.11.1.21.32.21a2.07,2.07,0,0,1,.21.74c-.11.11.1.21.1.32h.11a.61.61,0,0,1-.11.42,1.08,1.08,0,0,1-.21.63c-.1.11-.1.21-.21.21s-.21.32-.42.32c-.21.21-.42.11-.64.11a.37.37,0,0,0-.31-.11c-.21-.1-.32-.21-.53-.32s-.21-.21-.21-.31-.11-.32,0-.53l-.11-.32.11-.52c.21-.11.1-.32.32-.43.1-.31.42-.31.63-.52C39.51,38.89,39.73,38.89,39.73,38.78Z"/><path class="cls-3" d="M44.93,34.63c.1,0,.21,0,.21.1-.11.85-.74,1.37-1.06,2.11-.21.42-.53.64-.74,1.06a2.65,2.65,0,0,0-.63.84c.11.21.21.21.32.42s.31.53.52.64.11.21.32.21a7.83,7.83,0,0,1,.85,1.05c.1.11.1.21.21.32a4.73,4.73,0,0,0,.63.95c0,.32.32.63.42,1s.21.32.32.53c.21.42.31.84.53,1.26.1.11,0,.21-.11.21s-.11-.1-.21-.1a5.45,5.45,0,0,1-1.37-.74,12.36,12.36,0,0,1-1.48-1.06c-.21-.1-.21-.21-.42-.31a11.34,11.34,0,0,0-1.27-1c-.21-.21-.42-.32-.63-.53-.21,0-.21-.21-.32-.21a4.47,4.47,0,0,0-1-.63V41c-.21.21-.21.53-.31.84a3.23,3.23,0,0,1-.32,1c-.32.53-.53,1.06-.84,1.48a5.7,5.7,0,0,1-1.16,1.58,1.6,1.6,0,0,1-.43.32c-.1,0-.21,0-.21-.11s-.1-.1-.1-.31,0-.32.1-.53v-.11c0-.21.11-.52.11-.84a1,1,0,0,0,.1-.53,1.88,1.88,0,0,0,.21-.74c.11-.1.11-.31.11-.53s.11-.31.21-.52V41.8c.21-.53.32-.95.53-1.48l-.32-.1c-.31-.11-.74.1-1-.11a7.88,7.88,0,0,1-1.59-.21c-.21-.1-.52,0-.63-.1a.39.39,0,0,1-.32-.11c-.21-.1-.52-.1-.73-.21s-.32-.11-.53-.11-.21-.1-.32-.21v-.1a1.83,1.83,0,0,1,1.16-.63,5.93,5.93,0,0,1,1.37-.22c.32-.1.64.11.85,0,.53,0,1,.11,1.58.11.21,0,.32.11.53.11v-.11l-.53-.63a7.13,7.13,0,0,1-.63-1.27.78.78,0,0,1-.11-.53c0-.1.11-.1.11-.21s.21,0,.31-.1a3.32,3.32,0,0,0,1,.21,2.1,2.1,0,0,1,.95.52,4,4,0,0,1,1.06.85.39.39,0,0,0,.31.1c.11,0,.11-.1.22-.1.31-.21.73-.32,1.16-.63a1.87,1.87,0,0,1,.52-.32c.11-.11.22-.11.32-.21s.42-.32.63-.42.21-.11.32-.11a5.91,5.91,0,0,0,1.06-.63C44.5,34.63,44.72,34.73,44.93,34.63Z"/><path class="cls-3" d="M39.78,39.67c.21.1.31,0,.42.21s.11.21.21.31l.11.32-.21.42a1.15,1.15,0,0,1-1.16,0,.75.75,0,0,1-.22-.63L39,40a.34.34,0,0,1,.21-.1C39.46,39.67,39.67,39.77,39.78,39.67Z"/></svg>