<svg id="Capa_1" data-name="Capa 1" xmlns="http://www.w3.org/2000/svg" viewBox="0 0 80 80"><defs><style>.cls-1{fill:none;}.cls-2{fill:#007eae;}</style></defs><rect id="Bounds" class="cls-1" x="10" y="10" width="60" height="60"/><path class="cls-2" d="M68.94,18.3H11.06a1,1,0,0,0-1,1V60.67a1,1,0,0,0,1,1H68.94a1,1,0,0,0,1-1V19.33a1,1,0,0,0-1-1Zm-1,2.06v8.27H12.09V20.36ZM12.09,59.64V30.7H67.91V59.64Z"/><circle class="cls-2" cx="17.78" cy="24.5" r="1.55"/><circle class="cls-2" cx="22.43" cy="24.5" r="1.55"/><circle class="cls-2" cx="27.08" cy="24.5" r="1.55"/><path class="cls-2" d="M43.1,25.53H63.77a1,1,0,1,0,0-2.07H43.1a1,1,0,0,0-1,1A1,1,0,0,0,43.1,25.53Z"/><path class="cls-2" d="M34.21,46.2c.21.1.31.31.52.1.1,0,.21.11.31.11s.1.31.31.31c.1.31.21.51.31.83-.1.1.1.31.1.41h.11a1.09,1.09,0,0,1-.11.52,1.53,1.53,0,0,1-.2.72c-.11.1-.11.21-.31.21s-.21.41-.52.31a1,1,0,0,1-.72.1.53.53,0,0,0-.31-.1,1,1,0,0,1-.52-.42,1.32,1.32,0,0,1-.31-.41c.1-.21-.1-.41,0-.62h0l-.1-.31.1-.62c.21-.11.1-.42.31-.52.1-.31.52-.41.72-.52A.53.53,0,0,1,34.21,46.2Z"/><path class="cls-2" d="M45.37,36.8a.38.38,0,0,1,.31.1c-.1.93-.82,1.55-1.24,2.38-.2.51-.62.72-.82,1.24a5.93,5.93,0,0,0-.73.93c.11.2.31.31.42.51.31.21.31.52.62.73.1,0,.1.2.31.2a10.82,10.82,0,0,1,.93,1.24c.1.11.1.31.31.42.2.31.41.72.72,1.13a2,2,0,0,0,.52,1l.31.62a5,5,0,0,0,.62,1.34c.1.11,0,.21-.1.31s-.11-.1-.32-.1a12.36,12.36,0,0,1-1.55-.83c-.51-.41-1-.72-1.65-1.14-.21-.1-.31-.31-.52-.41a16.32,16.32,0,0,0-1.44-1c-.21-.21-.52-.31-.73-.52-.2,0-.2-.21-.41-.31a10.7,10.7,0,0,1-1-.72h0v.2c-.31.31-.21.62-.31.93s-.31.73-.42,1c-.31.51-.62,1.13-.93,1.65A7.36,7.36,0,0,1,37,49.51c-.1.1-.31.31-.51.31s-.21,0-.21-.1,0-.31-.1-.52c.1-.21,0-.41.1-.62h0v-.1c0-.31.1-.52.1-.93a1.28,1.28,0,0,0,.11-.63,2.46,2.46,0,0,0,.2-.82.75.75,0,0,0,.11-.52c.1-.21.1-.41.31-.52h0v-.31a10.11,10.11,0,0,0,.51-1.65h0l-.2-.1c-.42-.11-.83.1-1.14-.11a11.75,11.75,0,0,1-1.86-.2c-.21-.11-.52,0-.72-.11a.66.66,0,0,1-.42-.1,3.09,3.09,0,0,1-.93-.31c-.21,0-.31-.1-.52-.1s-.31-.11-.41-.21h0v-.1A1.79,1.79,0,0,1,32.77,41c.51-.1,1-.2,1.44-.31s.73.11.93,0c.62,0,1.14.11,1.76.11.21,0,.31.1.52.1h0v-.1l-.52-.62c-.21-.52-.52-.93-.72-1.35-.11-.1-.11-.41-.11-.51s.11-.11.11-.21.31,0,.31-.1c.31.1.72.2,1,.31a4.93,4.93,0,0,1,1,.51c.42.31.93.52,1.14.93a.37.37,0,0,0,.31.11c.1,0,.1-.11.21-.11.41-.31.82-.41,1.24-.72.1-.1.41-.21.51-.41s.31-.11.42-.21a3.16,3.16,0,0,0,.72-.52,1.1,1.1,0,0,0,.31-.1,7.94,7.94,0,0,0,1.24-.72C45,36.8,45.17,36.9,45.37,36.8Z"/><path class="cls-2" d="M35.14,43.62c.21.1.42,0,.52.2s.1.31.31.42h0l.1.41-.31.52a1.1,1.1,0,0,1-1.24,0,.69.69,0,0,1-.2-.73h0l.1-.41a.39.39,0,0,1,.31-.1C34.73,43.62,34.94,43.72,35.14,43.62Z"/></svg>