<svg id="Capa_1" data-name="Capa 1" xmlns="http://www.w3.org/2000/svg" viewBox="0 0 80 80"><defs><style>.cls-1,.cls-2,.cls-4{fill:none;}.cls-2,.cls-4{stroke:#007eae;}.cls-2{stroke-miterlimit:10;stroke-width:1.5px;}.cls-3{fill:#007eae;}.cls-4{stroke-width:2px;}</style></defs><rect id="Bounds" class="cls-1" x="9.43" y="11" width="60" height="60"/><path class="cls-2" d="M26.07,18.23h26.6"/><path class="cls-2" d="M50,41.11h-20a3.67,3.67,0,0,1-3.68-3.68V17a3.67,3.67,0,0,1,3.68-3.69H50A3.67,3.67,0,0,1,53.68,17V37C54.09,39.47,52.45,41.11,50,41.11Z"/><path class="cls-2" d="M40,28.42a3.68,3.68,0,1,0-3.68-3.68A3.68,3.68,0,0,0,40,28.42Z"/><path class="cls-2" d="M31.82,32.52H48.18"/><path class="cls-2" d="M31.82,36.2H48.18"/><path class="cls-3" d="M59.24,73.43a4.44,4.44,0,0,0,4.27-4.58V11.15a4.43,4.43,0,0,0-4.27-4.58H20.76a4.61,4.61,0,0,0-4,4.58v57.7a4.43,4.43,0,0,0,4.27,4.58Zm0,3.06H20.76a7.5,7.5,0,0,1-7.32-7.64V11.15a7.5,7.5,0,0,1,7.32-7.64H59.24a7.5,7.5,0,0,1,7.32,7.64v57.7A7.5,7.5,0,0,1,59.24,76.49Z"/><path class="cls-4" d="M27,56l9.16,9.16L53,46.87"/></svg>