<svg id="Capa_1" data-name="Capa 1" xmlns="http://www.w3.org/2000/svg" xmlns:xlink="http://www.w3.org/1999/xlink" viewBox="0 0 80 80"><defs><style>.cls-1,.cls-4{fill:none;}.cls-2{clip-path:url(#clip-path);}.cls-3{fill:#fff;}.cls-3,.cls-4{stroke:#007eae;}.cls-4{stroke-miterlimit:10;}</style><clipPath id="clip-path"><rect class="cls-1" x="-9.7" y="-2.97" width="93.57" height="86.82"/></clipPath></defs><rect id="Bounds" class="cls-1" x="10" y="10" width="60" height="60"/><g class="cls-2"><path class="cls-3" d="M54.31,29.15,64.64,25a2,2,0,0,1,1.11-.19,3.62,3.62,0,0,1,2.92,3.55V47.67a3.62,3.62,0,0,1-2.92,3.55A2.08,2.08,0,0,1,64.64,51L54.31,46.9a9,9,0,0,0-1.74-.45l-.27-.05a3.62,3.62,0,0,1-2.92-3.55V33.2a3.62,3.62,0,0,1,2.92-3.55l.27,0A9,9,0,0,0,54.31,29.15Z"/><rect class="cls-3" x="10.8" y="22.35" width="43.41" height="31.35" rx="8.44"/><path class="cls-4" d="M24.06,32a3.71,3.71,0,0,0-3.62-3.62A3.56,3.56,0,0,0,16.82,32a3.62,3.62,0,0,0,7.24,0Z"/><path class="cls-4" d="M62.64,26V50.08"/></g></svg>