<svg id="Capa_1" data-name="Capa 1" xmlns="http://www.w3.org/2000/svg" viewBox="0 0 80 80"><defs><style>.cls-1{fill:none;}.cls-2{fill:#007eae;}</style></defs><rect id="Bounds" class="cls-1" x="10" y="10" width="60" height="60"/><path class="cls-2" d="M67.07,11A2.89,2.89,0,0,1,70,13.68V69H10.05v-55A3.08,3.08,0,0,1,12.69,11H67.07Zm0,2.41H12.93c-.24,0-.24,0-.48.24V66.56h14.2V41.93H53.59V66.56h14.2V13.93C67.55,13.68,67.31,13.44,67.07,13.44ZM38.92,44.35H29.05V66.56h9.87Zm12.27,0H41.32V66.56h9.87Zm-7.7,10.38a1.13,1.13,0,0,1,1.2,1.2V59.8a1.2,1.2,0,0,1-2.4,0V55.93A1.29,1.29,0,0,1,43.49,54.73Zm-7,0a1.59,1.59,0,0,1,1.2,1V59.8a1.13,1.13,0,0,1-1.2,1.2,1.59,1.59,0,0,1-1.2-1V55.93A1.13,1.13,0,0,1,36.51,54.73Z"/><path class="cls-2" d="M32.39,30.18c.33.16.49.32.65.16a.56.56,0,0,1,.32.16c.16.16.16.33.48.33A3,3,0,0,1,34.17,32c-.17.16.16.32.16.49h.16a1,1,0,0,1-.16.64A1.65,1.65,0,0,1,34,34c-.16.17-.16.33-.32.33-.32.16-.32.48-.64.48-.32.32-.65.16-1,.16a.59.59,0,0,0-.48-.16c-.32-.16-.48-.32-.81-.48-.16-.16-.32-.33-.32-.49.16-.32-.16-.48,0-.8l-.16-.48.16-.81c.32-.16.16-.48.49-.64.16-.49.64-.49,1-.81C32.07,30.34,32.39,30.34,32.39,30.18Z"/><path class="cls-2" d="M47.69,17.47c.16,0,.32,0,.32.16-.16,1.29-1.13,2.09-1.61,3.22-.32.64-.81,1-1.13,1.61a3.85,3.85,0,0,0-1,1.28c.16.33.32.33.48.65.32.32.48.8.8,1,.16,0,.16.33.49.33a11.21,11.21,0,0,1,1.28,1.6c.16.17.16.33.33.49a7.89,7.89,0,0,0,1,1.45c0,.48.48,1,.64,1.44.17.33.33.49.49.81.32.64.48,1.29.8,1.93.16.16,0,.32-.16.32-.16.16-.16-.16-.32-.16A8.5,8.5,0,0,1,48,32.44a21,21,0,0,1-2.26-1.61c-.32-.17-.32-.33-.64-.49a22,22,0,0,0-1.93-1.45c-.32-.32-.65-.48-1-.8-.32,0-.32-.32-.48-.32a7.64,7.64,0,0,0-1.45-1v.32c-.32.33-.32.81-.48,1.29a5.14,5.14,0,0,1-.48,1.45c-.49.8-.81,1.61-1.29,2.25a8.56,8.56,0,0,1-1.77,2.42,2.14,2.14,0,0,1-.65.48c-.16,0-.32,0-.32-.16-.16,0-.16-.16-.16-.48.16-.33,0-.49.16-.81V33.4c0-.32.16-.8.16-1.29a1.44,1.44,0,0,0,.16-.8,3,3,0,0,0,.33-1.13,1.2,1.2,0,0,0,.16-.8c.16-.32.16-.49.32-.81v-.16c.32-.8.48-1.45.8-2.25L36.74,26c-.48-.16-1.13.16-1.61-.16a11.74,11.74,0,0,1-2.41-.33c-.33-.16-.81,0-1-.16a.59.59,0,0,1-.48-.16c-.32-.16-.81-.16-1.13-.32-.32,0-.48-.16-.8-.16-.33.16-.33-.16-.49-.32v-.16a2.8,2.8,0,0,1,1.77-1,9.54,9.54,0,0,1,2.1-.32c.48-.16,1,.16,1.28,0,.81,0,1.61.16,2.42.16.32,0,.48.16.8.16V23.1l-.8-1a10.57,10.57,0,0,1-1-1.93,1.2,1.2,0,0,1-.16-.8c0-.16.16-.16.16-.32.16-.16.32,0,.49-.16a4.67,4.67,0,0,0,1.44.32,3.25,3.25,0,0,1,1.45.8,5.56,5.56,0,0,1,1.61,1.29.6.6,0,0,0,.49.16c.16,0,.16-.16.32-.16a20,20,0,0,0,1.77-1,3.5,3.5,0,0,1,.8-.48c.16-.16.32-.16.49-.32s.64-.48,1-.64c.16,0,.32-.17.48-.17a8.24,8.24,0,0,0,1.61-1C47,17.47,47.36,17.63,47.69,17.47Z"/><path class="cls-2" d="M33.68,26.8c.32.16.49,0,.65.32.16.16.16.33.32.49l.16.48-.32.64a1.71,1.71,0,0,1-1.77,0,1.15,1.15,0,0,1-.33-1l.17-.49a.5.5,0,0,1,.32-.16C33.2,26.8,33.52,27,33.68,26.8Z"/></svg>