<?xml version="1.0" encoding="utf-8"?>
<!-- Generator: Adobe Illustrator 20.0.0, SVG Export Plug-In . SVG Version: 6.00 Build 0)  -->
<svg version="1.1" id="Logo_FIXED" xmlns="http://www.w3.org/2000/svg" xmlns:xlink="http://www.w3.org/1999/xlink" x="0px" y="0px"
	 viewBox="0 0 52 52" style="enable-background:new 0 0 52 52;" xml:space="preserve">
<style type="text/css">
	.st0{fill:#20A0F3;}
	.st1{fill:#FFFFFF;}
</style>
<title>Twitter_Logo_Blue</title>
<g stroke="none" id="twitter" stroke-width="1" fill="none" fill-rule="evenodd">
<path class="st0" d="M46,50H6c-2.2,0-4-1.8-4-4V6c0-2.2,1.8-4,4-4h40c2.2,0,4,1.8,4,4v40C50,48.2,48.2,50,46,50z"/>
<path class="st1" d="M19.3,40.6c13.6,0,21-11.2,21-21c0-0.3,0-0.7,0-1c1.4-1,2.7-2.3,3.7-3.8c-1.3,0.6-2.8,1-4.3,1.1
	c1.6-0.9,2.7-2.4,3.2-4.1c-1.4,0.8-3,1.5-4.7,1.8c-2.8-3-7.5-3.1-10.4-0.3c-2,1.8-2.7,4.5-2.1,7c-5.9-0.3-11.5-3.1-15.2-7.7
	c-1.9,3.4-1,7.7,2.2,9.8c-1.2,0-2.3-0.4-3.4-0.9v0.1c0,3.5,2.5,6.5,5.9,7.3c-1.1,0.3-2.2,0.4-3.3,0.1c1,3,3.8,5.1,6.9,5.1
	c-2.6,2-5.9,3.2-9.1,3.2c-0.6,0-1.2,0-1.7-0.1C11.4,39.5,15.3,40.6,19.3,40.6"/>
</g>
</svg>
