<svg id="Indicador_experiencia" data-name="Indicador experiencia" xmlns="http://www.w3.org/2000/svg" width="24.213" height="24.213" viewBox="0 0 24.213 24.213">
  <path id="Icon_awesome-laugh" data-name="Icon awesome-laugh" d="M12.106.563A12.106,12.106,0,1,0,24.213,12.669,12.1,12.1,0,0,0,12.106.563Zm3.905,7.42a1.562,1.562,0,1,1-1.562,1.562A1.56,1.56,0,0,1,16.012,7.982Zm-7.81,0A1.562,1.562,0,1,1,6.639,9.545,1.56,1.56,0,0,1,8.2,7.982ZM12.5,21.26h-.781A7.036,7.036,0,0,1,4.74,15.11a.784.784,0,0,1,.776-.879H18.7a.782.782,0,0,1,.776.879A7.036,7.036,0,0,1,12.5,21.26Z" transform="translate(0 -0.563)" fill="#04d554"/>
</svg>
