<?xml version="1.0" encoding="utf-8"?>
<!-- Generator: Adobe Illustrator 16.0.0, SVG Export Plug-In . SVG Version: 6.00 Build 0)  -->
<!DOCTYPE svg PUBLIC "-//W3C//DTD SVG 1.1//EN" "http://www.w3.org/Graphics/SVG/1.1/DTD/svg11.dtd">
<svg version="1.1" id="Indicador_experiencia" xmlns="http://www.w3.org/2000/svg" xmlns:xlink="http://www.w3.org/1999/xlink"
	 x="0px" y="0px" width="24.213px" height="24.213px" viewBox="0 0 24.213 24.213" enable-background="new 0 0 24.213 24.213"
	 xml:space="preserve">
<path fill="#C23934" d="M12.119,0c-0.004,0-0.009,0-0.013,0C5.419,0,0,5.421,0,12.107s5.421,12.105,12.107,12.105
	c6.687,0,12.104-5.42,12.104-12.106C24.216,5.423,18.802,0.003,12.119,0z M16.005,7.419c0.002,0,0.004,0,0.008,0L16.011,7.42
	c0.863,0,1.562,0.699,1.562,1.562s-0.699,1.562-1.562,1.562s-1.562-0.699-1.562-1.562C14.446,8.121,15.144,7.42,16.005,7.419z
	 M8.195,7.419c0.001,0,0.003,0,0.004,0L8.201,7.42c0.862,0,1.562,0.699,1.562,1.562s-0.7,1.562-1.562,1.562
	c-0.863,0-1.562-0.699-1.562-1.562C6.637,8.121,7.334,7.42,8.195,7.419z M17.61,19.223c-0.025,0.003-0.051,0.005-0.077,0.005H6.678
	c-0.355,0-0.643-0.289-0.643-0.645c0-0.026,0.001-0.053,0.005-0.079c0.367-2.893,2.827-5.062,5.744-5.063h0.642
	c2.917,0,5.38,2.17,5.747,5.063C18.216,18.857,17.964,19.18,17.61,19.223z"/>
</svg>
