<svg xmlns="http://www.w3.org/2000/svg" width="25.19" height="15.114" viewBox="0 0 25.19 15.114">
  <path id="Icon_awesome-money-bill-alt" data-name="Icon awesome-money-bill-alt" d="M13.854,13.316h-.63V9.853a.315.315,0,0,0-.315-.315h-.534a.943.943,0,0,0-.524.159l-.6.4a.315.315,0,0,0-.087.436l.35.524a.315.315,0,0,0,.436.087l.018-.012v2.182h-.63a.315.315,0,0,0-.315.315v.63a.315.315,0,0,0,.315.315h2.519a.315.315,0,0,0,.315-.315v-.63A.315.315,0,0,0,13.854,13.316ZM23.93,4.5H1.259A1.26,1.26,0,0,0,0,5.759V18.354a1.26,1.26,0,0,0,1.259,1.259H23.93a1.26,1.26,0,0,0,1.259-1.259V5.759A1.26,1.26,0,0,0,23.93,4.5ZM1.889,17.725V15.206a2.519,2.519,0,0,1,2.519,2.519Zm0-8.816V6.389H4.408A2.519,2.519,0,0,1,1.889,8.908Zm10.706,7.557c-2.087,0-3.778-1.974-3.778-4.408s1.692-4.408,3.778-4.408,3.778,1.973,3.778,4.408S14.681,16.465,12.595,16.465ZM23.3,17.725H20.782A2.519,2.519,0,0,1,23.3,15.206Zm0-8.816a2.519,2.519,0,0,1-2.519-2.519H23.3Z" transform="translate(0 -4.5)" fill="#494947"/>
</svg>
