<svg xmlns="http://www.w3.org/2000/svg" xmlns:xlink="http://www.w3.org/1999/xlink" width="20.76" height="23.725" viewBox="0 0 20.76 23.725">
  <defs>
    <clipPath id="clip-path">
      <path id="Trazado_205" data-name="Trazado 205" d="M6.112-24A6.05,6.05,0,0,0,0-18.022a6.033,6.033,0,0,0,6.112,5.978,6.05,6.05,0,0,0,6.112-5.978A6.05,6.05,0,0,0,6.112-24Zm1.735,8.321a1.946,1.946,0,0,1-1.019.646.3.3,0,0,0-.248.323v.539a.217.217,0,0,1-.248.242H5.754a.237.237,0,0,1-.248-.269v-.377c0-.3,0-.3-.3-.35a3.567,3.567,0,0,1-1.046-.3c-.248-.135-.275-.189-.22-.458.055-.189.11-.4.165-.592.083-.215.138-.242.358-.135a3.387,3.387,0,0,0,1.156.35,1.4,1.4,0,0,0,.743-.108.561.561,0,0,0,.138-1,1.405,1.405,0,0,0-.441-.242,11.223,11.223,0,0,1-1.184-.512,1.6,1.6,0,0,1-.936-1.562A1.738,1.738,0,0,1,5.2-21.065c.3-.108.3-.108.33-.431v-.323c0-.242.055-.3.3-.3h.22c.523,0,.523,0,.523.512,0,.35,0,.377.358.431a4.787,4.787,0,0,1,.826.242.243.243,0,0,1,.165.3c-.055.215-.138.431-.193.673-.055.215-.138.242-.33.135a2.645,2.645,0,0,0-1.294-.242.666.666,0,0,0-.33.081.483.483,0,0,0-.11.862,2.166,2.166,0,0,0,.551.3,6.894,6.894,0,0,1,1.019.458A1.72,1.72,0,0,1,7.847-15.679ZM19.8-11.558H19.08a7.783,7.783,0,0,0-2.616-3.636.238.238,0,0,0-.028-.135,2.709,2.709,0,0,1,.441-2.262.57.57,0,0,0-.551-.862,4.154,4.154,0,0,0-2.34.969,2.144,2.144,0,0,0-.716,1.158A7.319,7.319,0,0,1,6.14-10.831a7.316,7.316,0,0,1-4.46-1.481,6.74,6.74,0,0,0-.661,2.935,8.125,8.125,0,0,0,.193,1.643h0v.027a7,7,0,0,0,.606,1.589A8.821,8.821,0,0,0,3.359-3.829a4.29,4.29,0,0,1,1.211,2.8v.269h0a.532.532,0,0,0,.523.485H8.287A.517.517,0,0,0,8.81-.786v-.781a12.4,12.4,0,0,0,1.432.081c.385,0,.743-.027,1.1-.054v.727a.517.517,0,0,0,.523.512H15.06a.517.517,0,0,0,.523-.512v-.781a2.956,2.956,0,0,1,1.074-2.154c.028-.027.083-.054.11-.081l.028-.027h0a7.772,7.772,0,0,0,2.34-3.474H19.8a.965.965,0,0,0,.964-.943v-2.343A.947.947,0,0,0,19.8-11.558ZM15.8-11.4a.79.79,0,0,1-.8-.781.79.79,0,0,1,.8-.781.79.79,0,0,1,.8.781A.828.828,0,0,1,15.8-11.4Z" transform="translate(0 24)" fill="#494947"/>
    </clipPath>
  </defs>
  <g id="Grupo_389" data-name="Grupo 389" transform="translate(0 24)">
    <g id="Grupo_388" data-name="Grupo 388" transform="translate(0 -24)" clip-path="url(#clip-path)">
      <path id="Trazado_204" data-name="Trazado 204" d="M-5-29H25.645V4.611H-5Z" transform="translate(0.057 24.057)" fill="#494947"/>
    </g>
  </g>
</svg>
