<svg xmlns="http://www.w3.org/2000/svg" xmlns:xlink="http://www.w3.org/1999/xlink" width="13.75" height="22" viewBox="0 0 13.75 22">
  <defs>
    <clipPath id="clip-path">
      <path id="Trazado_201" data-name="Trazado 201" d="M12.031-19.325v-2.75A1.954,1.954,0,0,0,10.026-24H4.01a1.954,1.954,0,0,0-2.005,1.925v2.668A2.5,2.5,0,0,0,0-16.988v7.975a2.5,2.5,0,0,0,2.005,2.42v2.668A1.954,1.954,0,0,0,4.01-2H9.74a1.954,1.954,0,0,0,2.005-1.925V-6.593a2.5,2.5,0,0,0,2.005-2.42v-7.975A2.5,2.5,0,0,0,12.031-19.325Zm0,2.475v7.975a.812.812,0,0,1-.8.825H2.578a.818.818,0,0,1-.859-.77v-8.03a.812.812,0,0,1,.8-.825h8.651a.818.818,0,0,1,.859.77Z" transform="translate(0 24)" fill="#494947"/>
    </clipPath>
    <clipPath id="clip-path-2">
      <path id="Trazado_203" data-name="Trazado 203" d="M7.453-16.14a.828.828,0,0,0-.859.825v2.695H4.359A.828.828,0,0,0,3.5-11.8a.828.828,0,0,0,.859.825H7.4a.967.967,0,0,0,.917-.88v-3.465A.828.828,0,0,0,7.453-16.14Z" transform="translate(-3.5 16.14)" fill="#494947"/>
    </clipPath>
  </defs>
  <g id="Grupo_387" data-name="Grupo 387" transform="translate(0 24)">
    <g id="Grupo_385" data-name="Grupo 385" transform="translate(0 -24)" clip-path="url(#clip-path)">
      <path id="Trazado_200" data-name="Trazado 200" d="M-5-29H17.917V2.167H-5Z" transform="translate(0.417 24.417)" fill="#494947"/>
    </g>
    <g id="Grupo_386" data-name="Grupo 386" transform="translate(3.208 -16.795)" clip-path="url(#clip-path-2)">
      <path id="Trazado_202" data-name="Trazado 202" d="M-1.5-21.14H12.479V-6.8H-1.5Z" transform="translate(-3.083 16.557)" fill="#494947"/>
    </g>
  </g>
</svg>
