<?xml version="1.0" encoding="utf-8"?>
<!-- Generator: Adobe Illustrator 16.0.0, SVG Export Plug-In . SVG Version: 6.00 Build 0)  -->
<!DOCTYPE svg PUBLIC "-//W3C//DTD SVG 1.1//EN" "http://www.w3.org/Graphics/SVG/1.1/DTD/svg11.dtd">
<svg version="1.1" id="Indicador_experiencia" xmlns="http://www.w3.org/2000/svg" xmlns:xlink="http://www.w3.org/1999/xlink"
	 x="0px" y="0px" width="24.213px" height="24.213px" viewBox="0 0 24.213 24.213" enable-background="new 0 0 24.213 24.213"
	 xml:space="preserve">
<path fill="#FFB75D" d="M12.119,0c-0.004,0-0.009,0-0.013,0C5.42,0,0,5.421,0.001,12.107s5.421,12.105,12.107,12.105
	s12.105-5.42,12.105-12.106C24.216,5.423,18.802,0.003,12.119,0z M16.006,7.419c0.002,0,0.004,0,0.007,0L16.011,7.42
	c0.863,0,1.562,0.699,1.562,1.562s-0.699,1.562-1.562,1.562c-0.862,0-1.562-0.699-1.562-1.562
	C14.447,8.121,15.145,7.42,16.006,7.419z M8.196,7.419c0.001,0,0.003,0,0.004,0L8.201,7.42c0.862,0,1.562,0.699,1.562,1.562
	s-0.7,1.562-1.562,1.562c-0.863,0-1.562-0.699-1.562-1.562C6.637,8.121,7.334,7.42,8.196,7.419z M18.7,17.515v0.032
	c0,0-6.875-0.098-13.184,0v-0.021c-0.514,0-0.931-0.514-0.931-1.147c0-0.633,0.417-1.146,0.931-1.146H18.7v0.011
	c0.491,0.031,0.885,0.522,0.885,1.136C19.585,16.992,19.191,17.483,18.7,17.515z"/>
</svg>
