<svg width="64" height="64" xmlns="http://www.w3.org/2000/svg" baseProfile="tiny" version="1.2" xml:space="preserve">
    <g>
        <path fill="#032d60"  d="m0.22222,6.57787c0,-3.39315 2.7807,-6.24454 6.08974,-6.24454l51.15384,0c3.30904,0 6.08974,2.85139 6.08974,6.24454l0,51.06647c0,3.39315 -2.7807,6.24454 -6.08974,6.24454l-51.15384,0c-3.30904,0 -6.08974,-2.85139 -6.08974,-6.24454l0,-51.06647z" id="svg_4" stroke="#000" stroke-width="0" />
        <rect fill="none" height="64" width="64" />
        <path d="m48.58028,43.54972l-0.0095,0l0.0059,-0.0035l-9.5449,-16.5339l0,-13.3888l0.0405,0c1.9038,0 1.907,-2.8885 0,-2.8885l-14.6175,0c-1.9119,0 -1.9126,2.8885 0,2.8885l0.0764,0l0,13.3853l-9.5498,16.5374c-0.8328,1.4436 -1.2771,2.8848 -1.2805,4.2753c-0.0256,3.1274 2.4031,5.8821 7.145,5.8876l21.8699,0c6.1162,-0.0072 8.9892,-4.7186 5.8645,-10.1594zm-21.6526,-8.3537c0,0 -4.5295,8.0378 -6.1396,10.6335c-1.0178,1.6425 -0.3608,3.7003 1.0723,4.9948c-2.6934,0 -5.1797,-0.296 -5.2759,-3.0028c0,-0.7543 0.2534,-1.7271 0.8931,-2.8317l9.9385,-17.2118l-0.0034,-14.1545l8.7366,0l0,14.1581l4.2786,7.4144l-13.5002,0z" fill="#FFFFFF"  />
    </g>
</svg>